<svg fill="none" height="1194" viewBox="0 0 1406 1194" width="1406" xmlns="http://www.w3.org/2000/svg"
     xmlns:xlink="http://www.w3.org/1999/xlink">
    <linearGradient id="a" gradientUnits="userSpaceOnUse" x1="-248.124" x2="610.733" y1="572.34" y2="1271">
        <stop offset="0" stop-color="#dc13a2"/>
        <stop offset="1" stop-color="#6652a2"/>
    </linearGradient>
    <linearGradient id="b" gradientUnits="userSpaceOnUse" x1="-61.4171" x2="231.555" y1="310.404" y2="526.516">
        <stop offset="0" stop-color="#dc13a2"/>
        <stop offset="1" stop-color="#f43a72"/>
    </linearGradient>
    <linearGradient id="c" gradientUnits="userSpaceOnUse" x1="293.5" x2="616.139" y1="989.5" y2="660.893">
        <stop offset="0" stop-color="#fe820f"/>
        <stop offset="1" stop-color="#f43a72"/>
    </linearGradient>
    <linearGradient id="d" gradientUnits="userSpaceOnUse" x1="371" x2="1179.41" y1="1090" y2="84.6735">
        <stop offset="0" stop-color="#fe820f"/>
        <stop offset="1" stop-color="#fcf84a"/>
    </linearGradient>
    <path d="m32.4592 187.746c20.0589 41.746 682.7488 1000.024 682.7488 1000.024 3.367 4.91 10.696 7.21 17.331 5.46 8.121-2.14 12.181-9.5 8.616-15.76l-583.614-1039.46c-16.44-29.224-60.0156-41.42-95.6683-26.848-25.4719 15.338-49.4724 34.838-29.4135 76.584z"
          fill="url(#a)"/>
    <path d="m474.142 524.2c37-37 35.7-97.4-2.8-132.8l-319-293c-29-26.7-73.6002-26.7-102.7002 0-31.2 28.6-33 77.1-4.1 107.9l296.5002 315.8c35.5 37.9 95.3 38.9 132.1 2.1z"
          fill="url(#b)"/>
    <path d="m21.6998 782.299c81.1002-97.4 229.5002-277.7 313.3002-379.6 33.9-41.2 95.2-46.3 135.4-11.1 39.1 34.2 43.3 93.5 9.4 132.9l-321.2 373.6c-32.6 32.901-89.2002 41.8-126.7002 9.3-36.90001-32-41.4-87.6-10.2-125.1z"
          fill="url(#c)"/>
    <path d="m15.5997 890.499c24.2 36.3 71.5 49 110.6003 29.8l1178.5-578c91-44.6 127.2-155.6 80-245.2999-50-95.00003-171.6-125.3-260.3-64.9l-1085.4003 738.3999c-39.399953 26.8-49.8 80.4-23.4 120z"
          fill="url(#d)"/>
</svg>