<?xml version="1.0" encoding="UTF-8"?> <svg xmlns="http://www.w3.org/2000/svg" width="1018" height="595" viewBox="0 0 1018 595" fill="none"> <path d="M653.072 325.9L0 0H32.7835L703.752 298.198L653.072 325.9Z" fill="url(#paint0_linear)"></path> <path d="M683.525 133.057L724.659 312.625L683.525 323.152L613.39 122.927L683.525 133.057Z" fill="url(#paint1_linear)"></path> <path d="M357.286 594.446C359.739 591.064 1017.84 151.323 1017.84 151.323V141.097L315.548 454.589L357.286 594.446Z" fill="url(#paint2_linear)"></path> <path d="M683.525 133.057L357.286 594.446L247.797 513.085L266.274 422.875L615 117L683.525 133.057Z" fill="url(#paint3_linear)"></path> <defs> <linearGradient id="paint0_linear" x1="802.254" y1="343.52" x2="171.067" y2="-27.0578" gradientUnits="userSpaceOnUse"> <stop stop-color="#51DE7B"></stop> <stop offset="1" stop-color="#DFF352"></stop> </linearGradient> <linearGradient id="paint1_linear" x1="634.029" y1="139.953" x2="963.833" y2="444.833" gradientUnits="userSpaceOnUse"> <stop stop-color="#15DD69"></stop> <stop offset="0.10418" stop-color="#2AD186"></stop> <stop offset="0.26884" stop-color="#46BFAD"></stop> <stop offset="0.4203" stop-color="#5BB3C9"></stop> <stop offset="0.55231" stop-color="#68ACDA"></stop> <stop offset="0.65022" stop-color="#6CA9E0"></stop> <stop offset="1" stop-color="#B81DF5"></stop> </linearGradient> <linearGradient id="paint2_linear" x1="231.856" y1="405.191" x2="635.904" y2="325.577" gradientUnits="userSpaceOnUse"> <stop stop-color="#B81DF5"></stop> <stop offset="1" stop-color="#68ABDB"></stop> </linearGradient> <linearGradient id="paint3_linear" x1="533.658" y1="87.6471" x2="89.9646" y2="749.075" gradientUnits="userSpaceOnUse"> <stop offset="0.00407" stop-color="#4CED8D"></stop> <stop offset="0.07706" stop-color="#3DE983"></stop> <stop offset="0.21597" stop-color="#17DE6B"></stop> <stop offset="0.22391" stop-color="#15DD69"></stop> <stop offset="0.27631" stop-color="#1FD178"></stop> <stop offset="0.37642" stop-color="#3AB29E"></stop> <stop offset="0.51279" stop-color="#6480DB"></stop> <stop offset="0.55967" stop-color="#746DF2"></stop> <stop offset="1" stop-color="#B81DF5"></stop> </linearGradient> </defs> </svg> 