<svg width="1308" height="984" viewBox="0 0 1308 984" fill="none" xmlns="http://www.w3.org/2000/svg">
<g filter="url(#filter0_f_2315_63986)">
<path d="M660.016 828.688C158.605 826.779 150.309 656.504 157.098 471.624C163.887 286.744 397.502 145.245 678.893 155.578C960.283 165.911 1159.55 117.471 1152.77 302.351C1145.98 487.231 1161.43 830.596 660.016 828.688Z" fill="url(#paint0_linear_2315_63986)"/>
</g>
<g filter="url(#filter1_f_2315_63986)">
<path d="M660.016 828.688C158.605 826.779 150.309 656.504 157.098 471.624C163.887 286.744 397.502 145.245 678.893 155.578C960.283 165.911 1159.55 117.471 1152.77 302.351C1145.98 487.231 1161.43 830.596 660.016 828.688Z" fill="url(#paint1_linear_2315_63986)"/>
</g>
<defs>
<filter id="filter0_f_2315_63986" x="0.979492" y="0.0466461" width="1306.95" height="983.649" filterUnits="userSpaceOnUse" color-interpolation-filters="sRGB">
<feFlood flood-opacity="0" result="BackgroundImageFix"/>
<feBlend mode="normal" in="SourceGraphic" in2="BackgroundImageFix" result="shape"/>
<feGaussianBlur stdDeviation="77.5" result="effect1_foregroundBlur_2315_63986"/>
</filter>
<filter id="filter1_f_2315_63986" x="0.979492" y="0.0466766" width="1306.95" height="983.649" filterUnits="userSpaceOnUse" color-interpolation-filters="sRGB">
<feFlood flood-opacity="0" result="BackgroundImageFix"/>
<feBlend mode="normal" in="SourceGraphic" in2="BackgroundImageFix" result="shape"/>
<feGaussianBlur stdDeviation="77.5" result="effect1_foregroundBlur_2315_63986"/>
</filter>
<linearGradient id="paint0_linear_2315_63986" x1="1335.58" y1="856.921" x2="488.708" y2="-202.35" gradientUnits="userSpaceOnUse">
<stop offset="0.123144" stop-color="#405BFF"/>
<stop offset="1" stop-color="#A34FDE"/>
</linearGradient>
<linearGradient id="paint1_linear_2315_63986" x1="1335.58" y1="856.922" x2="488.708" y2="-202.35" gradientUnits="userSpaceOnUse">
<stop offset="0.123144" stop-color="#405BFF"/>
<stop offset="1" stop-color="#A34FDE"/>
</linearGradient>
</defs>
</svg>
