<svg width="1308" height="997" viewBox="0 0 1308 997" fill="none" xmlns="http://www.w3.org/2000/svg">
<g filter="url(#filter0_f_2315_63984)">
<path d="M659.557 841.173C158.136 839.567 149.953 666.178 156.867 477.907C163.78 289.637 397.497 145.39 678.887 155.723C960.278 166.056 1159.59 116.595 1152.67 304.865C1145.76 493.136 1160.98 842.779 659.557 841.173Z" fill="url(#paint0_linear_2315_63984)"/>
</g>
<g filter="url(#filter1_f_2315_63984)">
<path d="M659.557 841.173C158.136 839.567 149.953 666.178 156.867 477.907C163.78 289.637 397.497 145.39 678.887 155.723C960.278 166.056 1159.59 116.595 1152.67 304.865C1145.76 493.136 1160.98 842.779 659.557 841.173Z" fill="url(#paint1_linear_2315_63984)"/>
</g>
<defs>
<filter id="filter0_f_2315_63984" x="0.714355" y="0.200485" width="1307.13" height="995.978" filterUnits="userSpaceOnUse" color-interpolation-filters="sRGB">
<feFlood flood-opacity="0" result="BackgroundImageFix"/>
<feBlend mode="normal" in="SourceGraphic" in2="BackgroundImageFix" result="shape"/>
<feGaussianBlur stdDeviation="77.5" result="effect1_foregroundBlur_2315_63984"/>
</filter>
<filter id="filter1_f_2315_63984" x="0.714355" y="0.200516" width="1307.13" height="995.978" filterUnits="userSpaceOnUse" color-interpolation-filters="sRGB">
<feFlood flood-opacity="0" result="BackgroundImageFix"/>
<feBlend mode="normal" in="SourceGraphic" in2="BackgroundImageFix" result="shape"/>
<feGaussianBlur stdDeviation="77.5" result="effect1_foregroundBlur_2315_63984"/>
</filter>
<linearGradient id="paint0_linear_2315_63984" x1="1303.91" y1="1045.63" x2="461.346" y2="-237.707" gradientUnits="userSpaceOnUse">
<stop offset="0.123144" stop-color="#405BFF"/>
<stop offset="1" stop-color="#3DD6F5"/>
</linearGradient>
<linearGradient id="paint1_linear_2315_63984" x1="1303.91" y1="1045.63" x2="461.346" y2="-237.707" gradientUnits="userSpaceOnUse">
<stop offset="0.123144" stop-color="#405BFF"/>
<stop offset="1" stop-color="#3DD6F5"/>
</linearGradient>
</defs>
</svg>
