<svg width="1308" height="993" viewBox="0 0 1308 993" fill="none" xmlns="http://www.w3.org/2000/svg">
<g filter="url(#filter0_f_2315_63985)">
<path d="M659.708 837.079C158.29 835.374 150.07 663.006 156.943 475.847C163.815 288.688 397.499 145.342 678.889 155.675C960.28 166.008 1159.58 116.882 1152.7 304.041C1145.83 491.2 1161.13 838.784 659.708 837.079Z" fill="url(#paint0_linear_2315_63985)"/>
</g>
<g filter="url(#filter1_f_2315_63985)">
<path d="M659.708 837.079C158.29 835.374 150.07 663.006 156.943 475.847C163.815 288.688 397.499 145.342 678.889 155.675C960.28 166.008 1159.58 116.882 1152.7 304.041C1145.83 491.2 1161.13 838.784 659.708 837.079Z" fill="url(#paint1_linear_2315_63985)"/>
</g>
<defs>
<filter id="filter0_f_2315_63985" x="0.80127" y="0.150078" width="1307.07" height="991.935" filterUnits="userSpaceOnUse" color-interpolation-filters="sRGB">
<feFlood flood-opacity="0" result="BackgroundImageFix"/>
<feBlend mode="normal" in="SourceGraphic" in2="BackgroundImageFix" result="shape"/>
<feGaussianBlur stdDeviation="77.5" result="effect1_foregroundBlur_2315_63985"/>
</filter>
<filter id="filter1_f_2315_63985" x="0.80127" y="0.150108" width="1307.07" height="991.935" filterUnits="userSpaceOnUse" color-interpolation-filters="sRGB">
<feFlood flood-opacity="0" result="BackgroundImageFix"/>
<feBlend mode="normal" in="SourceGraphic" in2="BackgroundImageFix" result="shape"/>
<feGaussianBlur stdDeviation="77.5" result="effect1_foregroundBlur_2315_63985"/>
</filter>
<linearGradient id="paint0_linear_2315_63985" x1="1312.68" y1="1020.05" x2="628.085" y2="-41.1643" gradientUnits="userSpaceOnUse">
<stop offset="0.123144" stop-color="#EBFF38"/>
<stop offset="1" stop-color="#3DD6F5"/>
</linearGradient>
<linearGradient id="paint1_linear_2315_63985" x1="1312.68" y1="1020.05" x2="628.085" y2="-41.1642" gradientUnits="userSpaceOnUse">
<stop offset="0.123144" stop-color="#EBFF38"/>
<stop offset="1" stop-color="#3DD6F5"/>
</linearGradient>
</defs>
</svg>
